<svg width="29" height="29" viewBox="0 0 29 29" fill="none" xmlns="http://www.w3.org/2000/svg">
<circle cx="14.5" cy="14.5" r="14.5" fill="black"/>
<mask id="path-2-inside-1_7_14" fill="white">
<rect x="5" y="7" width="19" height="1" rx="0.2"/>
</mask>
<rect x="5" y="7" width="19" height="1" rx="0.2" fill="white" stroke="white" mask="url(#path-2-inside-1_7_14)"/>
<mask id="path-3-inside-2_7_14" fill="white">
<rect x="6" y="9" width="17" height="1" rx="0.2"/>
</mask>
<rect x="6" y="9" width="17" height="1" rx="0.2" fill="white" stroke="white" mask="url(#path-3-inside-2_7_14)"/>
<mask id="path-4-inside-3_7_14" fill="white">
<rect x="7" y="11" width="15" height="1" rx="0.2"/>
</mask>
<rect x="7" y="11" width="15" height="1" rx="0.2" fill="white" stroke="white" mask="url(#path-4-inside-3_7_14)"/>
<mask id="path-5-inside-4_7_14" fill="white">
<rect x="8" y="13" width="13" height="1" rx="0.2"/>
</mask>
<rect x="8" y="13" width="13" height="1" rx="0.2" fill="white" stroke="white" mask="url(#path-5-inside-4_7_14)"/>
<mask id="path-6-inside-5_7_14" fill="white">
<rect x="9" y="15" width="11" height="1" rx="0.2"/>
</mask>
<rect x="9" y="15" width="11" height="1" rx="0.2" fill="white" stroke="white" mask="url(#path-6-inside-5_7_14)"/>
<mask id="path-7-inside-6_7_14" fill="white">
<rect x="10" y="17" width="9" height="1" rx="0.2"/>
</mask>
<rect x="10" y="17" width="9" height="1" rx="0.2" fill="white" stroke="white" mask="url(#path-7-inside-6_7_14)"/>
<mask id="path-8-inside-7_7_14" fill="white">
<rect x="11" y="19" width="7" height="1" rx="0.2"/>
</mask>
<rect x="11" y="19" width="7" height="1" rx="0.2" fill="white" stroke="white" mask="url(#path-8-inside-7_7_14)"/>
<mask id="path-9-inside-8_7_14" fill="white">
<rect x="12" y="21" width="5" height="1" rx="0.2"/>
</mask>
<rect x="12" y="21" width="5" height="1" rx="0.2" fill="white" stroke="white" mask="url(#path-9-inside-8_7_14)"/>
<mask id="path-10-inside-9_7_14" fill="white">
<rect x="13" y="23" width="3" height="1" rx="0.2"/>
</mask>
<rect x="13" y="23" width="3" height="1" rx="0.2" fill="white" stroke="white" mask="url(#path-10-inside-9_7_14)"/>
</svg>
